<?xml version="1.0" encoding="UTF-8" standalone="no"?>
<svg
   xmlns:dc="http://purl.org/dc/elements/1.1/"
   xmlns:cc="http://creativecommons.org/ns#"
   xmlns:rdf="http://www.w3.org/1999/02/22-rdf-syntax-ns#"
   xmlns:svg="http://www.w3.org/2000/svg"
   xmlns="http://www.w3.org/2000/svg"
   viewBox="0 0 246.87868 246.87868"
   height="246.87868"
   width="246.87868"
   xml:space="preserve"
   id="svg2"
   version="1.1"><metadata
     id="metadata8"><rdf:RDF><cc:Work
         rdf:about=""><dc:format>image/svg+xml</dc:format><dc:type
           rdf:resource="http://purl.org/dc/dcmitype/StillImage" /></cc:Work></rdf:RDF></metadata><defs
     id="defs6"><clipPath
       id="clipPath18"
       clipPathUnits="userSpaceOnUse"><path
         id="path16"
         d="M 0,185.159 H 185.159 V 0 H 0 Z" /></clipPath></defs><g
     transform="matrix(1.3333333,0,0,-1.3333333,0,246.87867)"
     id="g10"><g
       id="g12"><g
         clip-path="url(#clipPath18)"
         id="g14"><g
           transform="translate(176.6562,92.5795)"
           id="g20"><path
             id="path22"
             style="fill:#8e5147;fill-opacity:1;fill-rule:nonzero;stroke:none"
             d="m 0,0 c 0,-46.434 -37.642,-84.076 -84.076,-84.076 -46.435,0 -84.077,37.642 -84.077,84.076 0,46.434 37.642,84.076 84.077,84.076 C -37.642,84.076 0,46.434 0,0" /></g><path
           id="path24"
           style="fill:#ffffff;fill-opacity:1;fill-rule:nonzero;stroke:none"
           d="M 139.825,39.667 H 45.332 v 4.677 h 94.493 z" /><g
           transform="translate(136.7896,126.5041)"
           id="g26"><path
             id="path28"
             style="fill:#ffffff;fill-opacity:1;fill-rule:nonzero;stroke:none"
             d="m 0,0 h -88.419 v -3.342 h -0.001 v -4.085 h 1.16 l 1.911,-3.203 -0.012,-1.82 h 9.593 l -0.017,1.82 1.913,3.203 h 1.16 v 0.012 h 8.474 v -0.012 h 1.163 l 1.91,-3.203 -0.014,-1.82 h 9.596 l -0.018,1.82 1.899,3.203 h 1.175 v 0.012 h 8.474 v -0.012 h 1.162 l 1.908,-3.203 -0.012,-1.82 h 9.595 l -0.014,1.82 1.897,3.203 h 1.159 v 0.012 h 8.49 v -0.012 h 1.161 l 1.895,-3.203 -0.013,-1.82 h 9.596 l -0.013,1.82 1.91,3.203 h 1.159 v 0.012 H 0 Z" /></g><g
           transform="translate(136.6151,49.5)"
           id="g30"><path
             id="path32"
             style="fill:#ffffff;fill-opacity:1;fill-rule:nonzero;stroke:none"
             d="m 0,0 v 3.539 h -2.462 l -0.044,4.27 H -13.19 l -0.041,-4.27 h -2.462 V 0 h -8.492 v 3.539 h -2.462 l -0.042,4.27 h -10.683 l -0.044,-4.27 h -2.462 V 0 h -8.476 v 3.539 h -2.477 l -0.043,4.27 H -61.557 L -61.6,3.539 h -2.463 V 0 h -8.476 V 3.539 H -75 l -0.042,4.27 h -10.7 l -0.042,-4.27 h -2.463 V 0 h -3.036 V -2.338 H 3.21 L 3.21,0 Z" /></g><g
           transform="translate(141.6537,137.7515)"
           id="g34"><path
             id="path36"
             style="fill:#ffffff;fill-opacity:1;fill-rule:nonzero;stroke:none"
             d="M 0,0 C -6.113,4.471 -25.771,7.741 -49.071,7.741 -72.378,7.741 -92.035,4.471 -98.154,0 h -0.187 V -7.373 H 0.193 l 0,7.373 z" /></g><g
           transform="translate(39.1365,90.6178)"
           id="g38"><path
             id="path40"
             style="fill:#ffffff;fill-opacity:1;fill-rule:nonzero;stroke:none"
             d="M 0,0 H -0.627 C -1.49,0 -1.655,0.136 -1.67,0.15 -1.695,0.176 -1.816,0.33 -1.826,1.084 l 7.017,7.54 V 1.297 C 5.191,0.492 5.15,0.286 5.132,0.237 5.116,0.185 5.081,0.129 4.954,0.08 4.891,0.056 4.674,0 4.023,0 H 3.385 V -1.355 H 9.404 V 0 H 8.838 C 7.984,0 7.811,0.124 7.786,0.148 7.781,0.155 7.639,0.3 7.639,1.171 v 9.878 c 0,0.714 0.129,0.938 0.184,1.001 0.077,0.092 0.285,0.197 0.838,0.197 h 0.743 v 1.36 H 3.385 v -1.36 h 0.802 c 0.415,0 0.614,-0.07 0.71,-0.131 0.131,-0.08 0.206,-0.166 0.233,-0.269 0.026,-0.089 0.055,-0.316 0.059,-0.894 L -1.827,3.368 v 7.596 c 0,0.78 0.138,1.011 0.198,1.075 0.06,0.063 0.276,0.208 1.002,0.208 H 0 v 1.36 h -6.069 v -1.36 h 0.825 c 0.512,0 0.716,-0.103 0.798,-0.194 0.054,-0.056 0.18,-0.267 0.18,-1.004 V 1.058 C -4.266,0.288 -4.411,0.162 -4.43,0.15 -4.491,0.105 -4.714,0 -5.473,0 H -6.069 V -1.355 H 0 Z" /></g><g
           transform="translate(64.3921,91.161)"
           id="g42"><path
             id="path44"
             style="fill:#ffffff;fill-opacity:1;fill-rule:nonzero;stroke:none"
             d="m 0,0 c -0.012,-0.091 -0.055,-0.183 -0.132,-0.272 -0.075,-0.091 -0.17,-0.156 -0.292,-0.198 -0.098,-0.033 -0.298,-0.073 -0.694,-0.073 h -0.639 v -1.355 h 6.02 v 1.355 H 3.645 c -0.562,0 -0.76,0.077 -0.818,0.112 -0.125,0.071 -0.206,0.159 -0.259,0.286 -0.034,0.086 -0.09,0.342 -0.09,1.084 v 9.548 c 0,0.402 0.037,0.683 0.114,0.842 0.06,0.136 0.143,0.23 0.252,0.286 0.055,0.028 0.242,0.089 0.801,0.089 h 0.618 v 1.36 h -4.828 l -4.008,-11.006 -4.042,10.847 -0.06,0.159 h -4.986 v -1.36 h 0.746 c 0.51,0 0.735,-0.054 0.835,-0.103 0.12,-0.054 0.207,-0.143 0.259,-0.258 0.034,-0.079 0.093,-0.309 0.093,-0.948 V 0.939 c 0,-0.71 -0.078,-0.953 -0.109,-1.021 -0.071,-0.143 -0.182,-0.248 -0.343,-0.328 -0.123,-0.06 -0.389,-0.133 -0.947,-0.133 h -0.534 v -1.355 h 5.585 v 1.355 h -0.577 c -0.586,0 -0.82,0.077 -0.908,0.124 -0.141,0.077 -0.246,0.183 -0.313,0.325 -0.043,0.082 -0.112,0.316 -0.112,0.948 v 8.905 l 4.347,-11.657 h 1.377 L 0.05,9.918 V 0.637 C 0.05,0.496 0.034,0.293 0,0" /></g><g
           transform="translate(81.8344,90.8496)"
           id="g46"><path
             id="path48"
             style="fill:#ffffff;fill-opacity:1;fill-rule:nonzero;stroke:none"
             d="m 0,0 c -0.015,-0.044 -0.048,-0.103 -0.169,-0.152 -0.065,-0.023 -0.284,-0.08 -0.934,-0.08 h -0.648 v -1.355 h 6.018 v 1.355 H 3.712 c -0.862,0 -1.031,0.122 -1.056,0.15 C 2.64,-0.07 2.513,0.08 2.513,0.939 v 9.878 c 0,0.69 0.114,0.927 0.184,1.006 0.06,0.073 0.246,0.192 0.829,0.192 h 0.741 v 1.36 h -15.253 v -1.36 h 0.823 c 0.511,0 0.716,-0.105 0.799,-0.194 0.055,-0.056 0.181,-0.269 0.181,-1.004 V 0.826 c 0,-0.77 -0.145,-0.896 -0.164,-0.908 -0.062,-0.044 -0.285,-0.15 -1.046,-0.15 h -0.593 v -1.355 h 6.069 v 1.355 h -0.628 c -0.869,0 -1.035,0.136 -1.047,0.148 -0.025,0.026 -0.152,0.199 -0.152,1.023 V 11.776 H 0.055 V 1.065 C 0.055,0.26 0.015,0.052 0,0" /></g><g
           transform="translate(102.6214,93.9582)"
           id="g50"><path
             id="path52"
             style="fill:#ffffff;fill-opacity:1;fill-rule:nonzero;stroke:none"
             d="M 0,0 0.081,0.232 -1.312,0.721 -1.396,0.51 c -0.358,-0.821 -0.74,-1.47 -1.133,-1.924 -0.492,-0.566 -1.07,-0.995 -1.715,-1.268 -0.649,-0.277 -1.574,-0.417 -2.747,-0.417 h -2.171 c -0.618,0 -0.736,0.044 -0.752,0.054 -0.048,0.021 -0.079,0.051 -0.097,0.1 -0.01,0.021 -0.051,0.157 -0.051,0.803 V 2.32 h 1.505 c 0.517,0 0.881,-0.033 1.078,-0.094 0.19,-0.061 0.369,-0.171 0.53,-0.33 0.164,-0.162 0.279,-0.333 0.34,-0.513 0.044,-0.126 0.096,-0.398 0.096,-0.969 v -0.793 h 1.506 V 6.458 H -6.513 V 5.976 c 0,-0.574 -0.042,-0.969 -0.129,-1.18 C -6.748,4.52 -6.94,4.29 -7.228,4.096 -7.514,3.909 -7.961,3.813 -8.557,3.813 h -1.505 v 4.813 h 3.268 c 0.985,0 1.669,-0.038 2.032,-0.117 0.355,-0.078 0.711,-0.232 1.061,-0.466 0.35,-0.229 0.657,-0.513 0.912,-0.85 0.249,-0.33 0.49,-0.803 0.714,-1.402 l 0.082,-0.234 1.369,0.517 -1.439,4.033 -0.061,0.16 h -12.179 v -1.36 h 0.242 c 0.963,0 1.124,-0.045 1.149,-0.057 0.165,-0.06 0.279,-0.145 0.343,-0.25 0.031,-0.052 0.101,-0.232 0.101,-0.786 v -9.975 c 0,-0.571 -0.054,-0.739 -0.079,-0.786 -0.075,-0.157 -0.174,-0.257 -0.312,-0.325 -0.013,-0.008 -0.148,-0.068 -0.787,-0.068 h -0.657 v -1.356 h 12.628 z" /></g><g
           transform="translate(110.7087,102.6073)"
           id="g54"><path
             id="path56"
             style="fill:#ffffff;fill-opacity:1;fill-rule:nonzero;stroke:none"
             d="M 0,0 C 1.18,0 1.976,-0.056 2.364,-0.166 2.907,-0.325 3.34,-0.627 3.648,-1.065 3.962,-1.51 4.121,-2.074 4.121,-2.746 4.121,-3.366 3.983,-3.907 3.71,-4.356 3.443,-4.806 3.102,-5.124 2.696,-5.304 2.267,-5.491 1.501,-5.585 0.418,-5.585 H -1.575 V 0 Z m 0.242,-11.99 h -0.744 c -0.541,0 -0.714,0.066 -0.766,0.094 -0.091,0.049 -0.168,0.15 -0.232,0.305 -0.022,0.049 -0.075,0.243 -0.075,0.948 V -7.17 H 0.83 c 1.54,0 2.691,0.162 3.419,0.483 0.738,0.32 1.375,0.875 1.894,1.647 0.435,0.642 0.656,1.419 0.656,2.306 0,1.035 -0.289,1.903 -0.862,2.582 C 5.377,0.517 4.652,0.997 3.79,1.271 3.11,1.503 1.909,1.618 0.117,1.618 H -5.85 v -1.36 h 0.586 c 0.58,0 0.813,-0.047 0.906,-0.087 0.117,-0.052 0.193,-0.124 0.24,-0.232 0.025,-0.049 0.085,-0.232 0.085,-0.814 v -9.904 c 0,-0.574 -0.061,-0.78 -0.098,-0.857 -0.054,-0.119 -0.136,-0.199 -0.26,-0.253 -0.079,-0.037 -0.296,-0.101 -0.873,-0.101 H -5.85 v -1.355 h 6.092 z" /></g><g
           transform="translate(125.7715,90.6178)"
           id="g58"><path
             id="path60"
             style="fill:#ffffff;fill-opacity:1;fill-rule:nonzero;stroke:none"
             d="m 0,0 h -0.628 c -0.84,0 -1.02,0.129 -1.046,0.152 -0.024,0.024 -0.142,0.178 -0.151,0.932 l 7.013,7.54 V 1.297 C 5.188,0.492 5.147,0.286 5.129,0.234 5.111,0.185 5.077,0.127 4.954,0.08 4.875,0.052 4.648,0 4.022,0 H 3.384 V -1.355 H 9.403 V 0 H 8.835 C 7.966,0 7.802,0.134 7.784,0.15 7.77,0.164 7.64,0.311 7.64,1.171 v 9.878 c 0,0.693 0.114,0.924 0.182,1.001 0.062,0.075 0.255,0.197 0.84,0.197 h 0.741 v 1.36 H 3.384 v -1.36 h 0.804 c 0.412,0 0.612,-0.07 0.709,-0.131 0.129,-0.077 0.205,-0.166 0.234,-0.267 0.025,-0.091 0.055,-0.321 0.057,-0.896 L -1.826,3.368 v 7.596 c 0,0.782 0.137,1.011 0.195,1.072 0.074,0.08 0.306,0.211 1.003,0.211 H 0 v 1.36 h -6.071 v -1.36 h 0.824 c 0.513,0 0.717,-0.103 0.799,-0.194 0.054,-0.056 0.183,-0.272 0.183,-1.004 V 1.058 C -4.265,0.29 -4.41,0.162 -4.427,0.15 -4.489,0.105 -4.715,0 -5.471,0 h -0.6 V -1.355 H 0 Z" /></g><g
           transform="translate(142.5583,102.3358)"
           id="g62"><path
             id="path64"
             style="fill:#ffffff;fill-opacity:1;fill-rule:nonzero;stroke:none"
             d="M 0,0 C 0.379,0.18 0.974,0.271 1.77,0.271 H 5.289 V -4.691 H 2.548 c -0.977,0 -1.67,0.061 -2.062,0.18 -0.528,0.148 -0.948,0.426 -1.249,0.824 -0.302,0.398 -0.455,0.918 -0.455,1.543 0,0.533 0.11,0.988 0.325,1.346 0.226,0.36 0.517,0.62 0.893,0.798 m 3.796,-6.163 h 1.493 v -4.221 c 0,-0.669 -0.034,-0.837 -0.038,-0.856 -0.06,-0.181 -0.145,-0.295 -0.261,-0.361 -0.076,-0.044 -0.287,-0.117 -0.869,-0.117 H 3.507 v -1.355 h 6.027 v 1.355 H 8.793 c -0.465,0 -0.621,0.042 -0.669,0.061 -0.087,0.033 -0.169,0.094 -0.243,0.18 -0.071,0.089 -0.124,0.206 -0.159,0.349 -0.002,0.019 -0.018,0.157 -0.027,1.007 v 9.475 c 0,0.501 0.066,0.719 0.104,0.805 0.063,0.136 0.141,0.227 0.244,0.281 0.061,0.033 0.229,0.089 0.653,0.089 h 0.838 v 1.36 H 1.818 c -1.464,0 -2.547,-0.15 -3.31,-0.456 -0.766,-0.312 -1.365,-0.77 -1.779,-1.365 -0.42,-0.592 -0.633,-1.29 -0.633,-2.076 0,-0.801 0.205,-1.522 0.609,-2.14 0.408,-0.62 0.997,-1.114 1.75,-1.47 0.643,-0.297 1.469,-0.475 2.457,-0.529 l -3.517,-4.291 c -0.18,-0.227 -0.43,-0.528 -0.582,-0.685 -0.226,-0.197 -0.46,-0.347 -0.696,-0.443 -0.237,-0.1 -0.508,-0.152 -0.807,-0.152 h -0.504 v -1.355 h 3.665 z" /></g><g
           transform="translate(43.852,69.036)"
           id="g66"><path
             id="path68"
             style="fill:#ffffff;fill-opacity:1;fill-rule:nonzero;stroke:none"
             d="m 0,0 c -0.17,0.169 -0.347,0.499 -0.526,0.981 l -4.091,10.99 -0.057,0.161 H -6.56 L -10.727,1.089 c -0.295,-0.782 -0.484,-1.04 -0.571,-1.122 -0.091,-0.088 -0.317,-0.192 -0.879,-0.192 h -0.243 v -1.282 h 4.417 v 1.276 l -0.238,0.006 c -0.527,0.01 -0.791,0.026 -0.86,0.033 0,0 -0.049,0.01 -0.148,0.11 -0.058,0.054 -0.085,0.129 -0.085,0.232 0,0.04 0.015,0.168 0.152,0.529 l 3.165,8.792 3.036,-8.485 c 0.22,-0.616 0.253,-0.822 0.253,-0.89 0,-0.105 0,-0.299 -0.474,-0.304 -0.233,0 -0.44,-0.005 -0.616,-0.017 L -4.04,-0.246 v -1.261 h 5.17 v 1.282 H 0.673 C 0.371,-0.225 0.151,-0.152 0,0" /></g><g
           transform="translate(55.2562,73.8136)"
           id="g70"><path
             id="path72"
             style="fill:#ffffff;fill-opacity:1;fill-rule:nonzero;stroke:none"
             d="m 0,0 h -3.37 l 1.692,4.693 z m 4.349,-4.801 c -0.097,0.089 -0.3,0.337 -0.542,1.002 L -0.286,7.193 -0.344,7.355 h -1.88 L -6.388,-3.691 C -6.626,-4.326 -6.765,-4.564 -6.825,-4.646 -6.922,-4.775 -7.032,-4.867 -7.15,-4.918 -7.237,-4.958 -7.424,-5.002 -7.838,-5.002 H -8.08 v -1.283 h 4.418 v 1.266 l -0.232,0.017 c -0.111,0.004 -0.253,0.007 -0.427,0.007 -0.272,0 -0.394,0.028 -0.452,0.054 -0.071,0.028 -0.125,0.07 -0.166,0.128 -0.034,0.05 -0.053,0.113 -0.053,0.185 0,0.038 0.014,0.164 0.148,0.529 l 0.966,2.69 H 0.54 L 1.355,-3.79 C 1.588,-4.473 1.606,-4.646 1.606,-4.682 1.606,-4.749 1.587,-4.836 1.449,-4.93 1.434,-4.939 1.338,-4.986 0.982,-4.986 0.833,-4.986 0.679,-4.993 0.521,-5.002 L 0.297,-5.023 v -1.262 h 5.166 v 1.283 H 5.012 c -0.284,0 -0.507,0.068 -0.663,0.201" /></g><g
           transform="translate(71.1875,71.2108)"
           id="g74"><path
             id="path76"
             style="fill:#ffffff;fill-opacity:1;fill-rule:nonzero;stroke:none"
             d="M 0,0 -3.652,9.801 -3.714,9.958 H -8.276 V 8.677 h 0.697 c 0.459,0 0.661,-0.049 0.746,-0.089 0.108,-0.051 0.179,-0.124 0.228,-0.229 0.024,-0.054 0.081,-0.244 0.081,-0.85 v -8.588 c 0,-0.618 -0.062,-0.843 -0.097,-0.92 -0.061,-0.124 -0.159,-0.218 -0.301,-0.286 -0.152,-0.077 -0.436,-0.114 -0.847,-0.114 h -0.507 v -1.283 h 5.115 v 1.283 h -0.545 c -0.508,0 -0.724,0.056 -0.814,0.105 -0.13,0.073 -0.224,0.166 -0.278,0.281 -0.036,0.077 -0.098,0.29 -0.098,0.856 v 7.964 l 3.91,-10.489 H 0.296 L 4.176,6.952 V -1.355 C 4.176,-1.496 4.161,-1.69 4.13,-1.931 4.123,-2.008 4.087,-2.081 4.016,-2.165 3.949,-2.25 3.868,-2.303 3.758,-2.339 3.645,-2.381 3.436,-2.399 3.139,-2.399 H 2.536 v -1.283 h 5.513 v 1.283 H 7.464 c -0.468,0 -0.656,0.051 -0.734,0.096 -0.105,0.056 -0.177,0.138 -0.222,0.248 -0.024,0.058 -0.08,0.274 -0.08,0.976 v 8.672 c 0,0.363 0.032,0.618 0.099,0.754 0.06,0.124 0.131,0.208 0.215,0.251 0.052,0.025 0.224,0.079 0.722,0.079 H 8.049 V 9.958 H 3.623 Z" /></g><g
           transform="translate(90.0142,79.8879)"
           id="g78"><path
             id="path80"
             style="fill:#ffffff;fill-opacity:1;fill-rule:nonzero;stroke:none"
             d="m 0,0 h 0.752 c 0.293,0 0.507,-0.04 0.634,-0.117 0.116,-0.07 0.179,-0.143 0.201,-0.23 0.022,-0.077 0.049,-0.28 0.053,-0.798 l -6.329,-6.842 v 6.845 c 0,0.697 0.123,0.903 0.177,0.962 0.05,0.054 0.239,0.18 0.89,0.18 h 0.593 V 1.281 H -8.585 V 0 h 0.769 c 0.457,0 0.638,-0.091 0.709,-0.168 0.048,-0.052 0.16,-0.242 0.16,-0.899 v -9.076 c 0,-0.702 -0.133,-0.802 -0.141,-0.809 -0.028,-0.021 -0.206,-0.124 -0.936,-0.124 h -0.561 v -1.283 h 5.556 v 1.283 h -0.593 c -0.778,0 -0.92,0.114 -0.933,0.128 -0.013,0.012 -0.123,0.141 -0.132,0.822 l 6.327,6.8 v -6.601 c 0,-0.747 -0.04,-0.922 -0.053,-0.957 -0.012,-0.038 -0.039,-0.085 -0.146,-0.127 -0.066,-0.023 -0.264,-0.065 -0.838,-0.065 H 0 v -1.283 h 5.513 v 1.283 H 4.975 c -0.786,0 -0.924,0.11 -0.937,0.121 -0.013,0.014 -0.128,0.145 -0.128,0.916 v 8.972 c 0,0.643 0.114,0.84 0.162,0.896 C 4.117,-0.119 4.279,0 4.817,0 H 5.513 V 1.281 H 0 Z" /></g><g
           transform="translate(106.3,79.8879)"
           id="g82"><path
             id="path84"
             style="fill:#ffffff;fill-opacity:1;fill-rule:nonzero;stroke:none"
             d="m 0,0 h 0.762 c 0.364,0 0.543,-0.063 0.631,-0.117 0.114,-0.068 0.18,-0.164 0.217,-0.318 0.006,-0.019 0.037,-0.15 0.037,-0.81 v -3.329 h -6.328 v 3.422 c 0,0.546 0.044,0.735 0.072,0.803 0.045,0.127 0.117,0.209 0.23,0.258 C -4.284,-0.049 -4.074,0 -3.614,0 h 0.592 V 1.281 H -8.58 V 0 h 0.769 c 0.377,0 0.529,-0.051 0.59,-0.084 0.09,-0.047 0.154,-0.12 0.2,-0.23 0.03,-0.07 0.081,-0.264 0.081,-0.76 v -9.061 c 0,-0.448 -0.054,-0.63 -0.085,-0.698 -0.047,-0.096 -0.103,-0.157 -0.176,-0.187 -0.028,-0.014 -0.17,-0.056 -0.816,-0.056 H -8.58 v -1.283 h 5.558 v 1.283 h -0.245 c -0.841,0 -1.061,0.03 -1.113,0.044 -0.159,0.045 -0.206,0.11 -0.228,0.159 -0.022,0.045 -0.073,0.211 -0.073,0.84 v 3.956 h 6.328 v -3.85 c 0,-0.752 -0.033,-0.899 -0.045,-0.929 -0.014,-0.045 -0.044,-0.101 -0.159,-0.146 -0.069,-0.028 -0.269,-0.074 -0.834,-0.074 H 0 v -1.283 h 5.518 v 1.283 H 5.277 c -0.866,0 -1.031,0.032 -1.064,0.044 -0.119,0.035 -0.193,0.087 -0.226,0.159 -0.017,0.035 -0.072,0.201 -0.072,0.84 v 8.959 c 0,0.594 0.056,0.749 0.069,0.777 0.037,0.086 0.104,0.152 0.202,0.208 C 4.249,-0.056 4.418,0 4.823,0 H 5.518 V 1.281 H 0 Z" /></g><g
           transform="translate(122.0932,73.8136)"
           id="g86"><path
             id="path88"
             style="fill:#ffffff;fill-opacity:1;fill-rule:nonzero;stroke:none"
             d="m 0,0 h -3.368 l 1.688,4.691 z m 4.348,-4.796 c -0.171,0.15 -0.355,0.484 -0.543,0.997 L -0.288,7.193 -0.347,7.355 H -2.223 L -6.388,-3.691 c -0.24,-0.635 -0.378,-0.873 -0.438,-0.955 -0.095,-0.127 -0.204,-0.218 -0.323,-0.272 -0.126,-0.056 -0.358,-0.084 -0.689,-0.084 h -0.243 v -1.283 h 4.419 v 1.264 l -0.231,0.019 c -0.112,0.004 -0.254,0.007 -0.428,0.007 -0.284,0 -0.406,0.033 -0.455,0.054 -0.069,0.028 -0.121,0.068 -0.163,0.128 -0.036,0.052 -0.056,0.115 -0.056,0.185 0,0.04 0.015,0.169 0.152,0.529 l 0.964,2.69 H 0.543 L 1.355,-3.79 c 0.226,-0.669 0.251,-0.847 0.251,-0.892 0,-0.067 -0.019,-0.154 -0.164,-0.25 C 1.438,-4.934 1.356,-4.986 0.981,-4.986 0.834,-4.986 0.676,-4.993 0.52,-5.002 L 0.294,-5.023 v -1.262 h 5.167 v 1.283 H 5.009 c -0.281,0 -0.504,0.068 -0.661,0.206" /></g><g
           transform="translate(138.8962,81.4491)"
           id="g90"><path
             id="path92"
             style="fill:#ffffff;fill-opacity:1;fill-rule:nonzero;stroke:none"
             d="M 0,0 -0.057,0.161 H -1.123 L -1.2,-0.281 h -7.667 l -0.092,0.442 h -1.032 l -1.496,-4.255 1.304,-0.466 0.084,0.225 c 0.248,0.644 0.548,1.173 0.891,1.568 0.335,0.389 0.697,0.67 1.076,0.831 0.381,0.162 0.9,0.244 1.549,0.244 0.289,0 0.371,-0.026 0.392,-0.035 0.021,-0.01 0.029,-0.017 0.029,-0.017 0.002,-0.007 0.022,-0.082 0.022,-0.43 v -9.314 c 0,-0.541 -0.061,-0.768 -0.112,-0.862 -0.064,-0.119 -0.167,-0.196 -0.316,-0.243 -0.048,-0.01 -0.239,-0.038 -0.972,-0.045 l -0.239,-0.007 v -1.276 h 5.559 v 1.276 l -0.244,0.007 c -0.519,0.005 -0.849,0.021 -0.983,0.054 -0.105,0.023 -0.192,0.061 -0.248,0.117 -0.056,0.049 -0.101,0.131 -0.134,0.237 -0.024,0.079 -0.062,0.287 -0.062,0.807 v 9.125 c 0,0.47 0.024,0.564 0.033,0.58 0.005,0 0.101,0.026 0.563,0.026 0.815,0 1.489,-0.195 2.005,-0.576 0.521,-0.391 0.981,-1.088 1.37,-2.072 l 0.09,-0.215 1.299,0.461 z" /></g><g
           transform="translate(148.264,73.8136)"
           id="g94"><path
             id="path96"
             style="fill:#ffffff;fill-opacity:1;fill-rule:nonzero;stroke:none"
             d="m 0,0 h -3.367 l 1.687,4.691 z m 5.013,-5.002 c -0.283,0 -0.506,0.068 -0.663,0.201 -0.097,0.087 -0.298,0.332 -0.545,1.002 L -0.284,7.196 -0.345,7.355 H -2.223 L -6.387,-3.691 c -0.24,-0.635 -0.378,-0.873 -0.438,-0.955 -0.098,-0.129 -0.206,-0.221 -0.324,-0.272 -0.125,-0.056 -0.358,-0.084 -0.688,-0.084 H -8.08 v -1.283 h 4.418 v 1.264 l -0.229,0.019 c -0.113,0.004 -0.256,0.007 -0.43,0.007 -0.217,0 -0.37,0.018 -0.454,0.054 -0.069,0.028 -0.123,0.07 -0.162,0.128 -0.035,0.05 -0.053,0.113 -0.053,0.185 0,0.038 0.015,0.164 0.148,0.529 l 0.964,2.69 H 0.54 L 1.358,-3.79 c 0.23,-0.686 0.249,-0.856 0.249,-0.892 0,-0.067 -0.02,-0.154 -0.159,-0.25 -0.01,-0.005 -0.1,-0.054 -0.466,-0.054 -0.147,0 -0.303,-0.007 -0.461,-0.016 L 0.295,-5.023 v -1.262 h 5.168 v 1.283 z" /></g></g></g></g></svg>